# WaveFront *.obj file (generated by Autodesk ATF)

mtllib a0826b70-ca0c-4ae8-8b23-13ae4bbbf7fb.mtl

g Body3

v -0.996119 2.000000 -1.000000
v -0.996119 2.000000 1.000000
v -0.996119 20.000000 1.000000
v -0.996119 20.000000 -1.000000
v 1.000000 2.000000 -1.000000
v 1.000000 20.000000 -1.000000
v 1.000000 2.000000 1.000000
v 1.000000 20.000000 1.000000
v 19.000000 2.000000 1.000000
v 19.000000 2.000000 -1.000000
v 1.000000 0.000000 -1.000000
v 1.000000 0.000000 -19.000000
v 1.000000 2.000000 -19.000000
v 19.000000 0.000000 -1.000000
v 19.000000 0.000000 1.000000
v -1.000000 0.000000 1.000000
v -1.000000 2.000000 1.000000
v -1.000000 0.000000 -19.000000
v -1.000000 2.000000 -19.000000
vt 0.000000 0.000000 0.000000
vt 0.200000 0.000000 0.000000
vt 0.000000 1.800000 0.000000
vt 0.200000 1.800000 0.000000
vt 0.000000 0.000000 0.000000
vt 0.199612 0.000000 0.000000
vt 0.000000 1.800000 0.000000
vt 0.199612 1.800000 0.000000
vt 0.000000 0.000000 0.000000
vt 0.200000 0.000000 0.000000
vt 0.000000 1.800000 0.000000
vt 0.200000 1.800000 0.000000
vt 0.100000 0.099806 0.000000
vt -0.100000 0.099806 0.000000
vt 0.100000 -0.099806 0.000000
vt -0.100000 -0.099806 0.000000
vt 0.800000 -0.800000 0.000000
vt 1.000000 -0.800000 0.000000
vt 0.800000 1.000000 0.000000
vt 1.000000 1.000000 0.000000
vt -0.000000 0.000000 0.000000
vt 1.800000 0.000000 0.000000
vt -0.000000 0.200000 0.000000
vt 1.800000 0.200000 0.000000
vt -0.000000 0.000000 0.000000
vt 1.800000 0.000000 0.000000
vt -0.000000 0.200000 0.000000
vt 1.800000 0.200000 0.000000
vt 0.000000 0.000000 0.000000
vt 0.200000 0.000000 0.000000
vt 0.000000 0.200000 0.000000
vt 0.200000 0.200000 0.000000
vt 2.000000 0.000000 0.000000
vt 0.200000 0.200000 0.000000
vt 0.000000 0.000000 0.000000
vt 0.000388 0.200000 0.000000
vt 0.000000 0.200000 0.000000
vt 2.000000 0.200000 0.000000
vt 0.200000 2.000000 0.000000
vt 0.000388 2.000000 0.000000
vt 0.000000 0.000000 0.000000
vt 2.000000 0.000000 0.000000
vt 0.000000 0.200000 0.000000
vt 2.000000 0.200000 0.000000
vt 0.000000 0.000000 0.000000
vt 0.200000 0.000000 0.000000
vt 0.000000 0.200000 0.000000
vt 0.200000 0.200000 0.000000
vt 0.800000 -0.800000 0.000000
vt -1.000000 -0.800000 0.000000
vt 0.800000 -0.999612 0.000000
vt -1.000000 -1.000000 0.000000
vt 1.000000 -1.000000 0.000000
vt 1.000000 -0.999612 0.000000
vt 0.800000 1.000000 0.000000
vt 0.800000 -0.800000 0.000000
vt 1.000000 1.000000 0.000000
vt 1.000000 -1.000000 0.000000
vt -1.000000 -1.000000 0.000000
vt -1.000000 -0.800000 0.000000
vn -0.100000 0.000000 0.000000
vn -0.100000 0.000000 0.000000
vn -0.100000 0.000000 0.000000
vn -0.100000 0.000000 0.000000
vn 0.000000 0.000000 -0.100000
vn 0.000000 0.000000 -0.100000
vn 0.000000 0.000000 -0.100000
vn 0.000000 0.000000 -0.100000
vn 0.100000 -0.000000 0.000000
vn 0.100000 -0.000000 0.000000
vn 0.100000 -0.000000 0.000000
vn 0.100000 -0.000000 0.000000
vn 0.000000 0.100000 0.000000
vn 0.000000 0.100000 0.000000
vn 0.000000 0.100000 0.000000
vn 0.000000 0.100000 0.000000
vn 0.000000 0.100000 0.000000
vn 0.000000 0.100000 0.000000
vn 0.000000 0.100000 0.000000
vn 0.000000 0.100000 0.000000
vn 0.100000 0.000000 0.000000
vn 0.100000 0.000000 0.000000
vn 0.100000 0.000000 0.000000
vn 0.000000 0.000000 -0.100000
vn 0.000000 0.000000 -0.100000
vn 0.000000 0.000000 -0.100000
vn 0.100000 -0.000000 0.000000
vn 0.100000 -0.000000 0.000000
vn 0.100000 -0.000000 0.000000
vn 0.100000 -0.000000 0.000000
vn 0.000000 0.000000 0.100000
vn 0.000000 0.000000 0.100000
vn 0.000000 0.000000 0.100000
vn 0.000000 0.000000 0.100000
vn 0.000000 0.000000 0.100000
vn 0.000000 0.000000 0.100000
vn 0.000000 0.000000 0.100000
vn 0.000000 0.000000 0.100000
vn -0.100000 0.000000 0.000000
vn -0.100000 0.000000 0.000000
vn -0.100000 0.000000 0.000000
vn -0.100000 0.000000 0.000000
vn 0.000000 0.000000 -0.100000
vn 0.000000 0.000000 -0.100000
vn 0.000000 0.000000 -0.100000
vn 0.000000 0.000000 -0.100000
vn 0.000000 0.100000 0.000000
vn 0.000000 0.100000 0.000000
vn 0.000000 0.100000 0.000000
vn 0.000000 0.100000 0.000000
vn 0.000000 0.100000 0.000000
vn 0.000000 -0.100000 0.000000
vn 0.000000 -0.100000 0.000000
vn 0.000000 -0.100000 0.000000
vn 0.000000 -0.100000 0.000000
vn 0.000000 -0.100000 0.000000
vn 0.000000 -0.100000 0.000000
usemtl Steel_-_Satin
f 1/1/1 2/2/2 4/3/3
f 4/3/3 2/2/2 3/4/4
f 5/5/5 1/6/6 6/7/7
f 6/7/7 1/6/6 4/8/8
f 7/9/9 5/10/10 8/11/11
f 8/11/11 5/10/10 6/12/12
f 8/13/13 6/14/14 3/15/15
f 3/15/15 6/14/14 4/16/16
f 5/17/17 7/18/18 10/19/19
f 10/19/19 7/18/18 9/20/20
f 11/21/21 12/22/22 5/23/10
f 5/23/10 12/22/22 13/24/23
f 14/25/24 11/26/25 10/27/26
f 10/27/26 11/26/25 5/28/5
f 15/29/27 14/30/28 9/31/29
f 9/31/29 14/30/28 10/32/30
f 15/33/31 7/34/32 16/35/33
f 16/35/33 7/34/32 2/36/34
f 16/35/33 2/36/34 17/37/35
f 15/33/31 9/38/36 7/34/32
f 8/39/37 3/40/38 7/34/32
f 7/34/32 3/40/38 2/36/34
f 18/41/39 16/42/40 19/43/41
f 19/43/41 16/42/40 17/44/42
f 12/45/43 18/46/44 13/47/45
f 13/47/45 18/46/44 19/48/46
f 5/49/17 13/50/47 1/51/48
f 1/51/48 13/50/47 19/52/49
f 1/51/48 19/52/49 17/53/50
f 17/53/50 2/54/51 1/51/48
f 12/55/52 11/56/53 18/57/54
f 18/57/54 11/56/53 16/58/55
f 16/58/55 11/56/53 15/59/56
f 15/59/56 11/56/53 14/60/57
# 19 vertices
# 60 texture params
# 57 normals
# 34 facets

# 1 groups
